<?xml version="1.0" ?><svg height="500" id="Layer_1" version="1.1" viewBox="0 0 500 500" width="500" xml:space="preserve" xmlns="http://www.w3.org/2000/svg" xmlns:cc="http://creativecommons.org/ns#" xmlns:dc="http://purl.org/dc/elements/1.1/" xmlns:inkscape="http://www.inkscape.org/namespaces/inkscape" xmlns:rdf="http://www.w3.org/1999/02/22-rdf-syntax-ns#" xmlns:sodipodi="http://sodipodi.sourceforge.net/DTD/sodipodi-0.dtd" xmlns:svg="http://www.w3.org/2000/svg"><defs id="defs7"/><path d="M 50,0 C 22.3,0 0,22.299999 0,49.999999 L 0,450 c 0,27.7 22.3,50 50,50 l 400,0 c 27.7,0 50,-22.3 50,-50 L 500,49.999999 C 500,22.299999 477.7,0 450,0 L 50,0 z m 237.875,90.031251 48.9375,0 0,56.062499 -29.34375,0 c -23.3813,0 -26.6875,7.62535 -26.6875,22.6875 l 0,33.34375 56.03125,0 -6.65625,56.0625 -49.375,0 0,168.125 -72.6875,0 0,-168.125 -39.40625,0 0,-56.0625 39.40625,0 0,-37.375 c 0,-47.20056 19.79545,-74.718749 79.78125,-74.718749 z" id="rect2986" style="fill:#000000;fill-opacity:1;stroke:none"/></svg>